<svg xmlns="http://www.w3.org/2000/svg" xmlns:xlink="http://www.w3.org/1999/xlink" width="14" height="14" viewBox="0 0 14 14">
    <defs>
        <path id="a" d="M4.897 6.63a1.768 1.768 0 0 0 1.514-.867c.157-.263.236-.552.236-.866a1.748 1.748 0 0 0-1.75-1.75c-.314 0-.603.078-.867.235a1.768 1.768 0 0 0-.867 1.515c0 .482.169.891.505 1.228.337.337.746.505 1.229.505zm0-6.63c.897 0 1.722.219 2.473.656a4.939 4.939 0 0 1 1.767 1.767c.438.752.656 1.576.656 2.474 0 .684-.168 1.47-.505 2.355a16.906 16.906 0 0 1-1.211 2.44c-.426.696-.914 1.42-1.464 2.171a26.21 26.21 0 0 1-1.212 1.548L4.897 14l-.505-.589a26.21 26.21 0 0 1-1.212-1.548 32.187 32.187 0 0 1-1.464-2.17 16.906 16.906 0 0 1-1.211-2.44C.168 6.365 0 5.58 0 4.896c0-.898.219-1.722.656-2.474A4.939 4.939 0 0 1 2.423.656 4.829 4.829 0 0 1 4.897 0z"/>
    </defs>
    <g fill="none" fill-rule="evenodd" transform="translate(2)">
        <mask id="b" fill="#fff">
            <use xlink:href="#a"/>
        </mask>
        <use fill="#FFF" xlink:href="#a"/>
        <g fill="#FFF" mask="url(#b)">
            <path d="M-2 0h14v14H-2z"/>
        </g>
    </g>
</svg>
