<svg xmlns="http://www.w3.org/2000/svg" xmlns:xlink="http://www.w3.org/1999/xlink" width="14" height="14" viewBox="0 0 14 14">
    <defs>
        <path id="a" d="M14 11.057c0 .358-.16 1.054-.308 1.382-.209.487-.766.805-1.213 1.054-.587.318-1.184.507-1.85.507-.924 0-1.76-.378-2.605-.686a9.294 9.294 0 0 1-1.74-.825c-1.69-1.044-3.729-3.083-4.773-4.773a9.294 9.294 0 0 1-.825-1.74C.378 5.13 0 4.296 0 3.37c0-.666.189-1.263.507-1.85.249-.447.567-1.004 1.054-1.213C1.89.16 2.585 0 2.943 0c.07 0 .14 0 .209.03.209.07.428.557.527.756.318.566.626 1.143.955 1.7.159.258.457.576.457.885 0 .606-1.8 1.491-1.8 2.028 0 .269.249.617.388.855 1.004 1.81 2.257 3.063 4.067 4.067.238.14.586.388.855.388.537 0 1.422-1.8 2.028-1.8.309 0 .627.298.885.457.557.329 1.134.637 1.7.955.2.1.687.318.756.527.03.07.03.14.03.209z"/>
    </defs>
    <g fill="none" fill-rule="evenodd">
        <mask id="b" fill="#fff">
            <use xlink:href="#a"/>
        </mask>
        <use fill="#FFF" xlink:href="#a"/>
        <g fill="#FFF" mask="url(#b)">
            <path d="M0 0h14v14H0z"/>
        </g>
    </g>
</svg>
